<svg width="300" height="60" viewBox="0 0 152 40" fill="none" xmlns="http://www.w3.org/2000/svg">
<path fill-rule="evenodd" clip-rule="evenodd" d="M41.4138 28.0813C42.8899 28.8978 44.5082 29.306 46.2688 29.306C48.0294 29.306 49.6477 28.8978 51.1238 28.0813C52.5999 27.247 53.7647 26.1022 54.6183 24.6467C55.4719 23.1735 55.8988 21.5139 55.8988 19.6679C55.8988 17.8219 55.4719 16.1712 54.6183 14.7157C53.7647 13.2425 52.5999 12.0976 51.1238 11.2811C49.6655 10.4647 48.0472 10.0564 46.2688 10.0564C44.5082 10.0564 42.8899 10.4647 41.4138 11.2811C39.9377 12.0976 38.764 13.2425 37.8926 14.7157C37.039 16.1712 36.6121 17.8219 36.6121 19.6679C36.6121 21.5139 37.039 23.1735 37.8926 24.6467C38.764 26.1022 39.9377 27.247 41.4138 28.0813ZM49.4165 23.1557C48.6518 24.0255 47.6026 24.4603 46.2688 24.4603C44.9172 24.4603 43.8591 24.0343 43.0944 23.1824C42.3297 22.3126 41.9473 21.1411 41.9473 19.6679C41.9473 18.1769 42.3297 17.0054 43.0944 16.1535C43.8591 15.2837 44.9172 14.8488 46.2688 14.8488C47.6026 14.8488 48.6518 15.2837 49.4165 16.1535C50.199 17.0054 50.5903 18.1769 50.5903 19.6679C50.5903 21.1234 50.199 22.286 49.4165 23.1557Z" fill="black"></path>
<path fill-rule="evenodd" clip-rule="evenodd" d="M7.44255 10.3493C9.41656 10.3493 11.1416 10.7486 12.6177 11.5474C14.1115 12.3284 15.2586 13.4289 16.0588 14.8488C16.8591 16.2688 17.2593 17.8929 17.2593 19.7212C17.2593 21.5316 16.8502 23.1469 16.0322 24.5668C15.2319 25.9868 14.0848 27.1051 12.591 27.9215C11.1149 28.7203 9.39878 29.1196 7.44255 29.1196H0V10.3493H7.44255ZM7.04242 24.5136C8.57183 24.5136 9.77224 24.0965 10.6437 23.2622C11.5151 22.428 11.9508 21.2476 11.9508 19.7212C11.9508 18.1769 11.5151 16.9877 10.6437 16.1535C9.77224 15.3015 8.57183 14.8755 7.04242 14.8755H5.22846V24.5136H7.04242Z" fill="black"></path>
<path fill-rule="evenodd" clip-rule="evenodd" d="M29.1394 29.1196L25.4048 22.1972H24.8446V29.1196H19.6161V10.3493H27.8589C29.3706 10.3493 30.651 10.6155 31.7003 11.148C32.7495 11.6628 33.5409 12.3816 34.0744 13.3046C34.6079 14.2099 34.8747 15.2305 34.8747 16.3664C34.8747 17.6444 34.519 18.7715 33.8076 19.7478C33.1141 20.7063 32.0915 21.3896 30.7399 21.7979L34.9814 29.1196H29.1394ZM24.8446 18.6295H27.4321C28.1435 18.6295 28.677 18.4609 29.0327 18.1237C29.3883 17.7864 29.5662 17.2983 29.5662 16.6593C29.5662 16.0558 29.3795 15.5855 29.006 15.2482C28.6503 14.8932 28.1257 14.7157 27.4321 14.7157H24.8446V18.6295Z" fill="black"></path>
<path fill-rule="evenodd" clip-rule="evenodd" d="M73.1076 16.6061C73.1076 17.7421 72.8408 18.7804 72.3073 19.7212C71.7916 20.6441 71.0002 21.3896 69.9332 21.9576C68.8839 22.5079 67.5946 22.783 66.0652 22.783H63.4776V29.1196H58.2491V10.3493H66.0652C67.5768 10.3493 68.8572 10.6155 69.9065 11.148C70.9735 11.6805 71.7738 12.4171 72.3073 13.3579C72.8408 14.2986 73.1076 15.3813 73.1076 16.6061ZM65.5583 18.6295C67.0344 18.6295 67.7724 17.955 67.7724 16.6061C67.7724 15.2393 67.0344 14.556 65.5583 14.556H63.4776V18.6295H65.5583Z" fill="black"></path>
<path d="M97.5728 29.306C95.3854 29.306 93.5892 28.7913 92.1843 27.7618C90.7793 26.7146 90.0235 25.2236 89.9168 23.2889H95.4921C95.5454 23.9456 95.741 24.4248 96.0789 24.7266C96.4168 25.0283 96.8525 25.1792 97.3861 25.1792C97.8662 25.1792 98.2575 25.0638 98.5598 24.8331C98.8799 24.5846 99.04 24.2473 99.04 23.8213C99.04 23.2711 98.7821 22.8451 98.2663 22.5434C97.7506 22.2416 96.9148 21.9044 95.7588 21.5316C94.5317 21.1234 93.5358 20.7329 92.7711 20.3601C92.0242 19.9696 91.3662 19.4105 90.7971 18.6828C90.2458 17.9373 89.9702 16.9699 89.9702 15.7807C89.9702 14.5737 90.2725 13.5442 90.8772 12.6922C91.4818 11.8225 92.3176 11.1658 93.3847 10.722C94.4517 10.2783 95.661 10.0564 97.0126 10.0564C99.2 10.0564 100.943 10.5712 102.241 11.6006C103.557 12.6124 104.26 14.0412 104.348 15.8872H98.6665C98.6487 15.3192 98.4709 14.8932 98.133 14.6092C97.8129 14.3252 97.395 14.1832 96.8792 14.1832C96.488 14.1832 96.1679 14.2986 95.9189 14.5293C95.6699 14.7601 95.5454 15.0885 95.5454 15.5145C95.5454 15.8695 95.6788 16.1801 95.9456 16.4463C96.2301 16.6948 96.5769 16.9167 96.9859 17.1119C97.3949 17.2894 97.9996 17.5202 98.7999 17.8042C99.9914 18.2124 100.97 18.6207 101.734 19.0289C102.517 19.4194 103.184 19.9785 103.735 20.7063C104.304 21.4163 104.589 22.3215 104.589 23.422C104.589 24.5402 104.304 25.5431 103.735 26.4306C103.184 27.318 102.374 28.0192 101.307 28.5339C100.258 29.0487 99.0133 29.306 97.5728 29.306Z" fill="black"></path>
<path d="M118.143 29.1196L112.248 20.8926V29.1196H107.019V10.3493H112.248V18.4432L118.09 10.3493H124.118L117.209 19.4549L124.465 29.1196H118.143Z" fill="black"></path>
<path d="M131.603 29.1196V10.3493H126.375V29.1196H131.603Z" fill="black"></path>
<path d="M152 29.1196H146.772L139.809 18.6295V29.1196H134.581V10.3493H139.809L146.772 20.9725V10.3493H152V29.1196Z" fill="black"></path>
<path fill-rule="evenodd" clip-rule="evenodd" d="M84.2776 25.4216C84.3257 25.2482 84.4681 24.5422 84.4339 24.4144C83.6436 22.8228 84.0232 19.8831 85.5621 18.8559C85.8262 18.6796 86 18.3323 86 18.0501C86 17.4179 85.882 17.2254 85.2611 17.2126C84.85 13.6321 83.7491 10.1849 81.8476 7.29933C79.6979 4.04038 74.9483 0.609328 70.9808 0C70.9808 0 76.0577 3.64578 77.4783 8.18579C78.862 12.6079 78.2925 15.3241 77.8802 17.29L77.8476 17.4456C77.8476 17.4456 77.2394 17.3575 76.9206 17.9951C76.6623 18.5116 77.1138 19.0153 77.4326 19.1747C77.4467 19.1817 77.464 19.1902 77.4842 19.2001C77.922 19.4143 79.7297 20.299 79.8552 21.8748C79.9816 23.4622 79.0796 23.9008 78.4856 24.1896C78.4362 24.2136 78.3886 24.2367 78.3442 24.2593L78.3337 24.2646C78.0547 24.4065 77.8909 24.4897 77.9365 24.8154C78.2973 27.3245 77.3366 27.8442 76.5048 28.285C76.4579 28.3099 76.4111 28.3327 76.3652 28.355C76.2044 28.4332 76.0535 28.5067 75.9414 28.6506C75.8793 28.7297 75.8748 28.9671 75.8689 29.2783C75.8603 29.7335 75.8488 30.3465 75.6498 30.8527C75.2821 31.7946 74.0795 32.2738 73.1526 32.2649C71.1543 32.2663 69.5385 33.8849 69.5429 35.878C69.5448 37.0169 70.0755 38.033 70.9026 38.694C70.9026 38.694 70.7313 39.5155 71.2326 39.9248C71.6419 40.1902 73.0352 39.6842 73.4834 39.4744C74.8231 39.4211 75.4646 38.8069 76.0766 38.2208C76.1035 38.195 76.1305 38.1692 76.1574 38.1436C76.1574 38.1436 76.4523 38.1889 76.795 38.1436C78.389 37.9325 80.3018 34.4773 80.9565 33.2507C80.9565 33.2507 83.3418 28.7725 84.2776 25.4216ZM75.5771 35.8821C75.5771 37.2196 74.4929 38.3039 73.1554 38.3039C71.8179 38.3039 70.7336 37.2196 70.7336 35.8821C70.7336 34.5446 71.8179 33.4604 73.1554 33.4604C74.4929 33.4604 75.5771 34.5446 75.5771 35.8821Z" fill="#FFB872"></path>
</svg>